<svg xmlns="http://www.w3.org/2000/svg" width="19.949" height="19.949" viewBox="0 0 19.949 19.949"><defs><style>.a{fill:#8e92ac;}</style></defs><g transform="translate(-18.389 -18.389)"><path class="a" d="M13.974,6.369a2.618,2.618,0,1,1-2.618,2.618,2.618,2.618,0,0,1,2.618-2.618m0,11.221c3.7,0,7.606,1.82,7.606,2.618V21.58H6.369V20.209c0-.8,3.9-2.618,7.606-2.618m0-13.59a4.987,4.987,0,1,0,4.987,4.987A4.986,4.986,0,0,0,13.974,4Zm0,11.221C10.646,15.221,4,16.892,4,20.209v3.74H23.949v-3.74C23.949,16.892,17.3,15.221,13.974,15.221Z" transform="translate(14.389 14.389)"/></g></svg>