<svg xmlns="http://www.w3.org/2000/svg" width="19.949" height="26.183" viewBox="0 0 19.949 26.183"><defs><style>.a{fill:#8e92ac;}</style></defs><g transform="translate(-4 -1)"><path class="a" d="M13.974,20.949a2.494,2.494,0,1,0-2.494-2.494A2.5,2.5,0,0,0,13.974,20.949ZM21.455,9.728H20.209V7.234a6.234,6.234,0,0,0-12.468,0h2.369a3.865,3.865,0,0,1,7.73,0V9.728H6.494A2.5,2.5,0,0,0,4,12.221V24.689a2.5,2.5,0,0,0,2.494,2.494H21.455a2.5,2.5,0,0,0,2.494-2.494V12.221A2.5,2.5,0,0,0,21.455,9.728Zm0,14.962H6.494V12.221H21.455Z"/></g></svg>